<svg xmlns="http://www.w3.org/2000/svg" viewBox="0 0 632.65 935.52"><title>Asset 5</title><g id="Layer_2" data-name="Layer 2"><g id="Layer_2-2" data-name="Layer 2"><circle cx="296" cy="674.52" r="69"/><path d="M138,234.52c0-38.11-35-60.5-69-69-36-9-69,30.89-69,69a69,69,0,0,0,138,0Z"/><circle cx="291" cy="866.52" r="69"/><path d="M360.34,691.84A2.2,2.2,0,0,0,363,690c2.19-16,19.12-108.24,116-84.47L527.41,616l.18,0c2.11.28,41.92,4.92,44.9-33.91a1.27,1.27,0,0,0,0-.2v-8.46a2.15,2.15,0,0,0-.16-.83c-.86-2.1-4.84-12-4.84-15.61,0-4,0-6.94,3.88-10.88a2.41,2.41,0,0,0,.21-.24c.85-1.19,7.9-10.86,17-16.94,13.17-8.79,18.61-19.76,10.29-31.22l0,0a2.16,2.16,0,0,1,.82-3.23,14.84,14.84,0,0,0,5.06-3.71,6.74,6.74,0,0,0,1-6.65c-2-5.45-7.82-20.81-8-21.76-.31-1.74-2.79-8.84-2.29-11.08v-21.2a2.21,2.21,0,0,1,2-2.19c7.49-.63,33.27-4.22,35-23.87,0,0,3-12.95-17.87-30.89a1.36,1.36,0,0,1-.24-.24c-2-2.35-30.85-37.06-30.89-71.8V301c.11-2.13,2.82-56.38-1.78-64.59a2.48,2.48,0,0,1-.29-.74C579.4,225.29,534.67,11.81,299.59,1l-.17,0C294.92.4,101.93-24.37,3.66,212.69a9.17,9.17,0,0,0,6.63,12.52L134,250.29a2.2,2.2,0,0,0,2.58-1.62c4-16.53,43.07-131.33,162.44-121.15,0,0,154.5,13.5,140.5,176.5,0,0-3,63-78.92,136.93l-.15.13c-2.95,2.39-93.32,76.61-132.17,221.68A2.21,2.21,0,0,0,230,665.5Z"/></g></g></svg>